<svg xmlns="http://www.w3.org/2000/svg" viewBox="0 0 300 200" width="300" height="200">
  <defs>
    <linearGradient id="growth-grad" x1="0%" y1="100%" x2="0%" y2="0%">
      <stop offset="0%" style="stop-color:#10b981;stop-opacity:1" />
      <stop offset="100%" style="stop-color:#06b6d4;stop-opacity:1" />
    </linearGradient>
  </defs>
  
  <!-- Growth chart bars -->
  <g transform="translate(50, 150)">
    <rect x="0" y="-30" width="30" height="30" fill="#e5e7eb"/>
    <rect x="40" y="-50" width="30" height="50" fill="#d1d5db"/>
    <rect x="80" y="-70" width="30" height="70" fill="#9ca3af"/>
    <rect x="120" y="-90" width="30" height="90" fill="#6b7280"/>
    <rect x="160" y="-110" width="30" height="110" fill="url(#growth-grad)"/>
    
    <!-- Base line -->
    <line x1="-10" y1="0" x2="200" y2="0" stroke="#374151" stroke-width="2"/>
  </g>
  
  <!-- Growth arrow -->
  <g transform="translate(240, 40)">
    <path d="M -20 20 L 0 0 L 20 20" stroke="#2563eb" stroke-width="3" fill="none" stroke-linecap="round" stroke-linejoin="round"/>
    <line x1="0" y1="0" x2="0" y2="40" stroke="#2563eb" stroke-width="3" stroke-linecap="round"/>
  </g>
  
  <!-- Plant growing -->
  <g transform="translate(150, 150)">
    <path d="M 0 0 Q -5 -10 0 -20 Q 5 -30 0 -40" stroke="#10b981" stroke-width="3" fill="none"/>
    <ellipse cx="-8" cy="-25" rx="6" ry="3" fill="#10b981" transform="rotate(-30 -8 -25)"/>
    <ellipse cx="8" cy="-35" rx="6" ry="3" fill="#10b981" transform="rotate(30 8 -35)"/>
    <ellipse cx="0" cy="-42" rx="5" ry="3" fill="#06b6d4"/>
  </g>
  
  <!-- Stars/achievements -->
  <g fill="#fbbf24" opacity="0.7">
    <path d="M 80 30 L 82 36 L 88 36 L 83 40 L 85 46 L 80 42 L 75 46 L 77 40 L 72 36 L 78 36 Z"/>
    <path d="M 220 80 L 222 86 L 228 86 L 223 90 L 225 96 L 220 92 L 215 96 L 217 90 L 212 86 L 218 86 Z"/>
  </g>
</svg>
